<svg height="512" viewBox="0 0 512 512" width="512" xmlns="http://www.w3.org/2000/svg"><g><g><rect fill="#acabb1" height="400" rx="20" width="400" x="96" y="40"/><path d="m128 72h336v336h-336z" fill="#e0e0e2"/><path d="m416 104v272h-48v-112h-144v112h-48v-272h48v112h144v-112z" fill="#00d7df"/><path d="m16 16h32v480h-32z" fill="#acabb1"/><g fill="#2d2d30"><path d="m48 72h48v24h-48z"/><path d="m48 384h48v24h-48z"/></g></g><g><path d="m464 64h-336a8 8 0 0 0 -8 8v336a8 8 0 0 0 8 8h336a8 8 0 0 0 8-8v-336a8 8 0 0 0 -8-8zm-8 336h-320v-320h320z"/><path d="m476 32h-360a28.031 28.031 0 0 0 -28 28v4h-32v-48a8 8 0 0 0 -8-8h-32a8 8 0 0 0 -8 8v480a8 8 0 0 0 8 8h32a8 8 0 0 0 8-8v-80h32v4a28.031 28.031 0 0 0 28 28h360a28.031 28.031 0 0 0 28-28v-360a28.031 28.031 0 0 0 -28-28zm-436 456h-16v-464h16zm48-88h-32v-8h32zm0-24h-32v-272h32zm0-288h-32v-8h32zm400 332a12.01 12.01 0 0 1 -12 12h-360a12.01 12.01 0 0 1 -12-12v-360a12.01 12.01 0 0 1 12-12h360a12.01 12.01 0 0 1 12 12z"/><path d="m176 384h48a8 8 0 0 0 8-8v-104h128v104a8 8 0 0 0 8 8h48a8 8 0 0 0 8-8v-272a8 8 0 0 0 -8-8h-48a8 8 0 0 0 -8 8v104h-128v-104a8 8 0 0 0 -8-8h-48a8 8 0 0 0 -8 8v272a8 8 0 0 0 8 8zm8-272h32v104a8 8 0 0 0 8 8h144a8 8 0 0 0 8-8v-104h32v256h-32v-104a8 8 0 0 0 -8-8h-144a8 8 0 0 0 -8 8v104h-32z"/></g></g></svg>