<?xml version="1.0" encoding="iso-8859-1"?>
<!-- Generator: Adobe Illustrator 19.0.0, SVG Export Plug-In . SVG Version: 6.00 Build 0)  -->
<svg fill="#1a2151" version="1.1" id="Capa_1" xmlns="http://www.w3.org/2000/svg" xmlns:xlink="http://www.w3.org/1999/xlink" x="0px" y="0px"
	 viewBox="0 0 512 512" style="enable-background:new 0 0 512 512;" xml:space="preserve">
<g>
	<g>
		<path d="M511.604,148.415v-115.4C511.604,14.811,496.6,0,478.158,0H33.445C15.003,0,0,14.811,0,33.015v377.11
			c0,18.441,15.003,33.445,33.445,33.445h219.942v24.182c0,24.398,19.85,44.248,44.248,44.248h170.116
			C492.15,512,512,492.15,512,467.752V154.248C512,152.27,511.856,150.326,511.604,148.415z M20,33.015
			C20,25.717,25.906,20,33.445,20h444.713c7.539,0,13.445,5.717,13.445,13.015v83.994c-5.605-3.603-12.068-5.979-19.013-6.739
			c-0.003,0-0.007-0.001-0.01-0.001c-0.316-0.034-0.634-0.061-0.952-0.089c-0.008-0.001-0.017-0.002-0.026-0.002V49.57
			c0-5.522-4.478-10-10-10H50c-5.523,0-10,4.478-10,10v298.162H20V33.015z M253.388,385.534h-99.915c-5.523,0-10,4.478-10,10
			c0,5.522,4.477,10,10,10h99.915v18.036H33.445c-7.413,0-13.445-6.031-13.445-13.445v-42.393h233.388V385.534z M253.388,311.607
			H110.811v-41.041h142.577V311.607z M259.813,131.306c-0.005,0.008-0.01,0.016-0.015,0.024c-0.329,0.541-0.643,1.093-0.949,1.649
			c-0.09,0.164-0.178,0.33-0.266,0.495c-0.228,0.427-0.449,0.859-0.664,1.294c-0.078,0.158-0.157,0.315-0.233,0.474
			c-0.274,0.574-0.539,1.154-0.789,1.742c-0.041,0.096-0.078,0.194-0.118,0.291c-0.209,0.501-0.409,1.007-0.6,1.518
			c-0.069,0.184-0.136,0.37-0.203,0.555c-0.171,0.476-0.333,0.956-0.488,1.44c-0.046,0.145-0.096,0.288-0.141,0.433
			c-0.19,0.616-0.367,1.237-0.53,1.864c-0.039,0.148-0.072,0.297-0.109,0.445c-0.124,0.497-0.24,0.998-0.347,1.502
			c-0.041,0.194-0.082,0.388-0.12,0.582c-0.109,0.549-0.208,1.101-0.297,1.657c-0.017,0.104-0.037,0.206-0.052,0.31
			c-0.099,0.652-0.181,1.31-0.251,1.971c-0.019,0.178-0.033,0.358-0.05,0.537c-0.048,0.509-0.087,1.021-0.117,1.535
			c-0.011,0.195-0.024,0.389-0.033,0.585c-0.031,0.677-0.052,1.356-0.052,2.04v63.364H110.811V130h149.828
			C260.356,130.43,260.081,130.865,259.813,131.306z M100.811,110c-5.523,0-10,4.478-10,10v107.612c0,5.522,4.477,10,10,10h152.577
			v12.954H100.811c-5.523,0-10,4.478-10,10v61.041c0,5.522,4.477,10,10,10h152.577v16.125H60V59.57h391.604V110H100.811z
			 M492,467.752c0,13.37-10.878,24.248-24.248,24.248H297.636c-13.37,0-24.248-10.878-24.248-24.248v-16.091H492V467.752z
			 M492,431.661H273.388V190.339H492V431.661z M492.002,170.338H273.388v-16.091c0-13.37,10.878-24.248,24.248-24.248h163.968h6.148
			c0.71,0,1.414,0.036,2.111,0.098c0.046,0.004,0.093,0.006,0.14,0.011c8.685,0.823,16.248,6.347,19.813,14.103
			c0.026,0.058,0.053,0.116,0.079,0.174c0.261,0.579,0.498,1.172,0.713,1.774c0.04,0.113,0.077,0.228,0.116,0.341
			c0.197,0.58,0.376,1.167,0.529,1.766c0.03,0.117,0.054,0.236,0.082,0.353c0.14,0.586,0.262,1.178,0.358,1.78
			c0.201,1.254,0.309,2.538,0.309,3.848V170.338z"/>
	</g>
</g>
<g>
	<g>
		<path d="M433.579,148.219c-0.129-0.639-0.319-1.269-0.569-1.879c-0.25-0.6-0.56-1.18-0.92-1.72c-0.36-0.551-0.78-1.061-1.24-1.521
			c-0.46-0.46-0.97-0.88-1.52-1.24c-0.54-0.359-1.13-0.67-1.73-0.92c-0.6-0.25-1.229-0.449-1.87-0.58c-1.29-0.26-2.62-0.26-3.91,0
			c-0.63,0.131-1.26,0.33-1.869,0.58c-0.601,0.25-1.181,0.561-1.721,0.92c-0.55,0.36-1.06,0.78-1.52,1.24
			c-1.87,1.86-2.93,4.44-2.93,7.07c0,0.649,0.06,1.31,0.189,1.95c0.13,0.64,0.32,1.27,0.57,1.87c0.25,0.609,0.56,1.189,0.92,1.729
			c0.37,0.55,0.79,1.061,1.25,1.521c0.46,0.46,0.97,0.88,1.52,1.239c0.54,0.36,1.12,0.67,1.721,0.92
			c0.609,0.25,1.239,0.45,1.869,0.57c0.65,0.13,1.311,0.2,1.961,0.2c0.649,0,1.31-0.07,1.949-0.2c0.641-0.12,1.271-0.32,1.87-0.57
			c0.601-0.25,1.19-0.56,1.73-0.92c0.55-0.359,1.06-0.779,1.52-1.239c0.46-0.46,0.88-0.971,1.24-1.521
			c0.36-0.54,0.67-1.12,0.92-1.729c0.25-0.601,0.44-1.23,0.57-1.87c0.13-0.641,0.189-1.301,0.189-1.95
			C433.768,149.519,433.708,148.858,433.579,148.219z"/>
	</g>
</g>
<g>
	<g>
		<path d="M385.776,140.17H341.61c-5.522,0-10,4.478-10,10c0,5.522,4.478,10,10,10h44.166c5.522,0,10-4.478,10-10
			C395.776,144.648,391.299,140.17,385.776,140.17z"/>
	</g>
</g>
<g>
	<g>
		<path d="M395.871,461.83h-26.354c-5.522,0-10,4.478-10,10c0,5.522,4.477,10,10,10h26.354c5.522,0,10-4.478,10-10
			C405.871,466.308,401.393,461.83,395.871,461.83z"/>
	</g>
</g>
<g>
	<g>
		<path d="M145.848,173.614l10.429-10.429c3.905-3.905,3.905-10.237,0-14.143c-3.905-3.904-10.237-3.904-14.143,0l-17.5,17.5
			c-3.905,3.905-3.905,10.237,0,14.143l17.501,17.501c1.953,1.952,4.512,2.929,7.071,2.929s5.119-0.977,7.071-2.929
			c3.905-3.905,3.905-10.237,0-14.143L145.848,173.614z"/>
	</g>
</g>
<g>
	<g>
		<path d="M187.44,78.5c-0.13-0.641-0.32-1.271-0.57-1.87c-0.25-0.61-0.56-1.19-0.92-1.73c-0.37-0.55-0.78-1.06-1.24-1.52
			c-0.46-0.46-0.98-0.88-1.52-1.24c-0.55-0.359-1.13-0.67-1.73-0.92c-0.6-0.25-1.23-0.439-1.87-0.57c-1.29-0.26-2.62-0.26-3.91,0
			c-0.64,0.131-1.27,0.32-1.87,0.57s-1.18,0.561-1.73,0.92c-0.54,0.36-1.06,0.78-1.52,1.24s-0.87,0.97-1.24,1.52
			c-0.36,0.54-0.67,1.12-0.92,1.73c-0.25,0.6-0.44,1.229-0.57,1.87c-0.13,0.64-0.2,1.3-0.2,1.95c0,0.649,0.07,1.31,0.2,1.949
			c0.13,0.641,0.32,1.271,0.57,1.881c0.25,0.6,0.56,1.18,0.92,1.72c0.37,0.55,0.78,1.06,1.24,1.52c0.46,0.46,0.98,0.88,1.52,1.25
			c0.55,0.36,1.13,0.67,1.73,0.92c0.6,0.24,1.23,0.44,1.87,0.561c0.65,0.13,1.3,0.2,1.96,0.2c0.65,0,1.3-0.07,1.95-0.2
			c0.64-0.12,1.27-0.32,1.87-0.561c0.6-0.25,1.18-0.56,1.73-0.92c0.54-0.37,1.06-0.79,1.52-1.25c0.46-0.46,0.87-0.97,1.24-1.52
			c0.36-0.54,0.67-1.12,0.92-1.72c0.25-0.61,0.44-1.24,0.57-1.881c0.13-0.64,0.19-1.3,0.19-1.949
			C187.63,79.8,187.57,79.139,187.44,78.5z"/>
	</g>
</g>
<g>
	<g>
		<path d="M333.969,70.451H215.636c-5.523,0-10,4.478-10,10c0,5.522,4.477,10,10,10h118.333c5.522,0,10-4.478,10-10
			C343.969,74.929,339.491,70.451,333.969,70.451z"/>
	</g>
</g>
<g>
	<g>
		<path d="M462.685,205.005H302.703c-5.522,0-10,4.478-10,10v97.996c0,5.522,4.478,10,10,10h159.981c5.522,0,10-4.478,10-10v-97.996
			C472.685,209.482,468.207,205.005,462.685,205.005z M312.703,303.001v-77.996h139.981v77.996H312.703z"/>
	</g>
</g>
<g>
	<g>
		<path d="M462.685,340.955H302.703c-5.522,0-10,4.478-10,10v61.04c0,5.522,4.478,10,10,10h159.981c5.522,0,10-4.478,10-10v-61.04
			C472.685,345.433,468.207,340.955,462.685,340.955z M312.703,401.995v-41.04h139.981v41.04H312.703z"/>
	</g>
</g>
<g>
	<g>
		<path d="M439.071,256.931l-17.5-17.5c-3.906-3.904-10.236-3.904-14.143,0c-3.905,3.905-3.905,10.237,0,14.143l10.429,10.429
			l-10.429,10.429c-3.905,3.905-3.905,10.237,0.001,14.142c1.953,1.952,4.512,2.929,7.071,2.929s5.118-0.977,7.071-2.929l17.5-17.5
			C442.976,267.169,442.976,260.837,439.071,256.931z"/>
	</g>
</g>
<g>
	<g>
		<path d="M347.74,264.002l10.429-10.429c3.905-3.905,3.905-10.237,0-14.143c-3.906-3.904-10.236-3.904-14.143,0l-17.5,17.5
			c-3.905,3.905-3.905,10.237,0,14.143l17.501,17.501c1.953,1.952,4.512,2.929,7.071,2.929s5.118-0.977,7.071-2.929
			c3.905-3.905,3.905-10.237,0-14.143L347.74,264.002z"/>
	</g>
</g>
<g>
</g>
<g>
</g>
<g>
</g>
<g>
</g>
<g>
</g>
<g>
</g>
<g>
</g>
<g>
</g>
<g>
</g>
<g>
</g>
<g>
</g>
<g>
</g>
<g>
</g>
<g>
</g>
<g>
</g>
</svg>
