<svg fill="white" id="Capa_1" enable-background="new 0 0 509.487 509.487" height="512" viewBox="0 0 509.487 509.487" width="512" xmlns="http://www.w3.org/2000/svg"><g><g><path id="XMLID_582_" d="m67.244 0h-45v150h45c24.813 0 45-20.187 45-45v-60c0-24.813-20.187-45-45-45zm15 105c0 8.271-6.729 15-15 15h-15v-90h15c8.271 0 15 6.729 15 15z"/><path id="XMLID_581_" d="m142.244 150h75v-30h-45v-30h30v-30h-30v-30h45v-30h-75z"/><path id="XMLID_578_" d="m442.244 150c24.813 0 45-20.187 45-45v-60c0-24.813-20.187-45-45-45-24.814 0-45 20.187-45 45v60c0 24.813 20.186 45 45 45zm-15-105c0-8.271 6.728-15 15-15 8.271 0 15 6.729 15 15v60c0 8.271-6.729 15-15 15-8.272 0-15-6.729-15-15z"/><path id="XMLID_577_" d="m277.244 42.213 30 30 30-30v107.787h30v-150h-30.213l-29.787 29.787-29.787-29.787h-30.213v150h30z"/></g><g><path id="XMLID_576_" d="m299.744 315c0-24.813-20.187-45-45-45-24.814 0-45 20.187-45 45 0 24.814 20.186 45 45 45v-44.517l32.659 30.481c7.861-8.256 12.341-19.239 12.341-30.964z"/><path id="XMLID_575_" d="m254.744 180c-74.44 0-135 60.561-135 135 0 69.369 52.595 126.676 120 134.162v-60.671c-34.192-6.968-60-37.271-60-73.491 0-41.355 33.644-75 75-75s75 33.645 75 75c0 14.259-3.977 27.852-11.207 39.504l44.316 41.361c17.322-23.113 26.891-51.336 26.891-80.865 0-74.439-60.561-135-135-135z"/><path id="XMLID_574_" d="m344.744 420-75-70v103l24.35-10.714 31.627 67.201 27.145-12.775-31.303-66.512z"/></g></g></svg>